<svg width="1728" height="1001" viewBox="0 0 1728 1001" fill="none" xmlns="http://www.w3.org/2000/svg">
<path d="M0 3.71446C0 3.71446 136.244 74.7308 230 78.0641C332.692 81.715 377.42 -3.26327 480 3.71446C577.536 10.3491 610.342 75.3326 708 78.0641C811.478 80.9583 857.497 21.5099 960 3.71446C1148.78 -29.0584 1238.89 166.473 1429.5 169.142C1628.01 171.922 1920 3.71446 1920 3.71446V843.245C1920 843.245 1616.44 1001.72 1412 999.999C1249.86 998.633 1167.6 899.65 1005.5 895.29C843.716 890.938 757.425 998.781 596.5 977.694C483.158 962.842 430.913 878.253 317 873.604C189.001 868.381 0 977.694 0 977.694V3.71446Z" fill="#4BAFE7"/>
</svg>
