<svg xmlns="http://www.w3.org/2000/svg" viewBox="0 0 1241.83 991.67">
    <defs>
        <style>.cls-1,.cls-2{fill:#fbfdfe;}.cls-2{opacity:0.36;}</style>
    </defs>
    <g id="Layer_2" data-name="Layer 2">
        <g id="Layer_1-2" data-name="Layer 1">
            <path class="cls-1" d="M953.4,38.51a122.59,122.59,0,0,0-82.47-5.25,62.48,62.48,0,0,0-6.31,2.21C856,56.91,846.54,77.87,836.5,98.29a1081.71,1081.71,0,0,1-54.44,97.4C716.81,316.44,536.61,506.82,525.49,518.51l-.39.42-.14.14q-13.25,14.26-27.44,29l142.86,95.46s0,0,0,0c135.44,27.87,226.31,7.46,271.42-9,22.09-8,33.2-15.13,33.2-15.13C977.82,783.41,1027,879.8,1057.18,927c1.45,2.27,2.86,4.43,4.21,6.47,13.73,20.6,22.6,29.85,22.6,29.85h0l157.74,28.35h.09C993.94,696.51,956.58,245.53,953.4,38.51ZM887.08,551c-36.67,9.49-107.81,18.09-203.88-16l0,0c1.49-1.53,93.58-96.48,160.45-214.36,2.17-4.69,4.32-9.45,6.4-14.29,0,0,.06.83.21,2.39.05.56.11,1.22.19,2C851,316,852,326,853.88,339.3h0c6.56,46.87,23.16,134.6,61.16,202C915,541.35,905.33,546.29,887.08,551Z" />
            <path class="cls-2" d="M20.69,876.2l1.06-.47c-.38.19-.74.37-1.1.53Z" />
            <path class="cls-1" d="M640.41,643.58s206.55,55.84,309.66,0,46-84.11,46-84.11L757,577,656.56,580.6Z" />
            <path class="cls-1" d="M1241.83,991.67h-.09c-2.76-.33-67.07-8.17-157.74-28.35h0c-166.35-37-421.45-115.62-548-265.78,0,0-260.74,267.73-518.42,292.81,0,0-41.51-47.51,3.08-114.08l0-.06,1.06-.47h0c3.94-1.73,18.4-8.21,39.58-18.68,58.6-24,135.37-60.57,209.49-111.49,1.7-1.17,3.4-2.33,5.1-3.52,80.48-55.76,157.69-127.56,221.58-193.94q14.16-14.72,27.44-29A1652.35,1652.35,0,0,0,640.38,643.55s0,0,0,0C752.82,752.81,890.63,854.25,1057.18,927A1309,1309,0,0,0,1241.83,991.67Z" />
            <path class="cls-1" d="M853.72,286.23s-21.76,297.93,203,649.39l50-23.2L933.65,234.49Z" />
            <path class="cls-1" d="M1241.83,991.67h-.1c-6-.73-263.79-32.17-481.82-134.58l-201.51-135Q546.61,710.15,536,697.53s-1.09,1.12-3.19,3.2C277.94,483.32,130.85,202.69,71.94,72.41a87.47,87.47,0,0,1-.21-19.34S83.79,3.44,219.53,0C219.53,0,487.09,789,1241.83,991.67Z" />
            <path class="cls-1" d="M851.58,306.35l-1.11,4.36c-.08-.75-.14-1.41-.19-2C850.72,308,851.15,307.16,851.58,306.35Z" />
        </g>
    </g>
</svg>